<svg width="95" height="30" viewBox="0 0 95 30" fill="none" xmlns="http://www.w3.org/2000/svg">
<circle cx="15" cy="15" r="15" fill="#0051FF"/>
<path d="M7.5 9.29118L8.70789 10.4824L11.1237 8.1M7.5 14.85L8.70789 16.0412L11.1237 13.6588M7.5 20.4088L8.70789 21.6L11.1237 19.2176M13.9421 14.85H22.8M13.9421 20.4088H22.8M13.9421 9.29118H22.8" stroke="white" stroke-width="2" stroke-linecap="round" stroke-linejoin="round"/>
<path d="M45.48 8.1V9.96H41.78V22H39.5V9.96H35.78V8.1H45.48ZM47.0291 16.44C47.0291 15.3333 47.2557 14.3533 47.7091 13.5C48.1757 12.6467 48.8024 11.9867 49.5891 11.52C50.3891 11.04 51.2691 10.8 52.2291 10.8C53.0957 10.8 53.8491 10.9733 54.4891 11.32C55.1424 11.6533 55.6624 12.0733 56.0491 12.58V10.98H58.3491V22H56.0491V20.36C55.6624 20.88 55.1357 21.3133 54.4691 21.66C53.8024 22.0067 53.0424 22.18 52.1891 22.18C51.2424 22.18 50.3757 21.94 49.5891 21.46C48.8024 20.9667 48.1757 20.2867 47.7091 19.42C47.2557 18.54 47.0291 17.5467 47.0291 16.44ZM56.0491 16.48C56.0491 15.72 55.8891 15.06 55.5691 14.5C55.2624 13.94 54.8557 13.5133 54.3491 13.22C53.8424 12.9267 53.2957 12.78 52.7091 12.78C52.1224 12.78 51.5757 12.9267 51.0691 13.22C50.5624 13.5 50.1491 13.92 49.8291 14.48C49.5224 15.0267 49.3691 15.68 49.3691 16.44C49.3691 17.2 49.5224 17.8667 49.8291 18.44C50.1491 19.0133 50.5624 19.4533 51.0691 19.76C51.5891 20.0533 52.1357 20.2 52.7091 20.2C53.2957 20.2 53.8424 20.0533 54.3491 19.76C54.8557 19.4667 55.2624 19.04 55.5691 18.48C55.8891 17.9067 56.0491 17.24 56.0491 16.48ZM65.3438 22.18C64.4771 22.18 63.6971 22.0267 63.0038 21.72C62.3238 21.4 61.7838 20.9733 61.3838 20.44C60.9838 19.8933 60.7704 19.2867 60.7438 18.62H63.1038C63.1438 19.0867 63.3638 19.48 63.7638 19.8C64.1771 20.1067 64.6904 20.26 65.3038 20.26C65.9438 20.26 66.4371 20.14 66.7838 19.9C67.1438 19.6467 67.3238 19.3267 67.3238 18.94C67.3238 18.5267 67.1238 18.22 66.7238 18.02C66.3371 17.82 65.7171 17.6 64.8638 17.36C64.0371 17.1333 63.3638 16.9133 62.8438 16.7C62.3238 16.4867 61.8704 16.16 61.4838 15.72C61.1104 15.28 60.9238 14.7 60.9238 13.98C60.9238 13.3933 61.0971 12.86 61.4438 12.38C61.7904 11.8867 62.2838 11.5 62.9238 11.22C63.5771 10.94 64.3238 10.8 65.1638 10.8C66.4171 10.8 67.4238 11.12 68.1838 11.76C68.9571 12.3867 69.3704 13.2467 69.4238 14.34H67.1438C67.1038 13.8467 66.9038 13.4533 66.5438 13.16C66.1838 12.8667 65.6971 12.72 65.0838 12.72C64.4838 12.72 64.0238 12.8333 63.7038 13.06C63.3838 13.2867 63.2238 13.5867 63.2238 13.96C63.2238 14.2533 63.3304 14.5 63.5438 14.7C63.7571 14.9 64.0171 15.06 64.3238 15.18C64.6304 15.2867 65.0838 15.4267 65.6838 15.6C66.4838 15.8133 67.1371 16.0333 67.6438 16.26C68.1638 16.4733 68.6104 16.7933 68.9838 17.22C69.3571 17.6467 69.5504 18.2133 69.5638 18.92C69.5638 19.5467 69.3904 20.1067 69.0438 20.6C68.6971 21.0933 68.2038 21.48 67.5638 21.76C66.9371 22.04 66.1971 22.18 65.3438 22.18ZM76.3873 16.5L81.4673 22H78.3873L74.3073 17.26V22H72.0273V7.2H74.3073V15.8L78.3073 10.98H81.4673L76.3873 16.5ZM85.3816 8.1V22H83.1016V8.1H85.3816ZM91.035 12.84V18.94C91.035 19.3533 91.1283 19.6533 91.315 19.84C91.515 20.0133 91.8483 20.1 92.315 20.1H93.715V22H91.915C90.8883 22 90.1017 21.76 89.555 21.28C89.0083 20.8 88.735 20.02 88.735 18.94V12.84H87.435V10.98H88.735V8.24H91.035V10.98H93.715V12.84H91.035Z" fill="#0051FF"/>
</svg>
