<?xml version="1.0" standalone="no"?><svg xmlns:xlink="http://www.w3.org/1999/xlink" xmlns="http://www.w3.org/2000/svg" viewBox="0 0 1000 1555.5797754812884" preserveAspectRatio="xMaxYMax slice"><g transform="scale(2.4770378590466375)"><rect x="0" y="0" width="403.71428571428567" height="672.8571428571428" fill="#0051FF"/><rect x="0" y="0" width="44.857142857142854" height="44.857142857142854" fill="#0051FF"/><rect x="0" y="0" width="22.43" height="22.43" fill="#6495ff"/><polygon points="22.43,0 22.43,22.43 0,22.43" fill="#0051ff"/><rect x="22.43" y="0" width="22.43" height="22.43" fill="#0051ff"/><polygon points="22.43,0 44.86,0 22.43,22.43" fill="#f6f9ff"/><rect x="0" y="22.43" width="22.43" height="22.43" fill="#0051ff"/><polygon points="0,22.43 22.43,22.43 22.43,44.86" fill="#c6d8ff"/><rect x="22.43" y="22.43" width="22.43" height="22.43" fill="#0051ff"/><polygon points="22.43,22.43 44.86,44.86 22.43,44.86" fill="#0051ff"/><rect x="44.86" y="0" width="44.86" height="44.86" fill="#3e7bff"/><polygon points="44.86,0 89.72,0 89.72,44.86" fill="#81a9ff"/><rect x="89.71428571428571" y="0" width="44.857142857142854" height="44.857142857142854" fill="#0051FF"/><rect x="89.71" y="0" width="22.43" height="22.43" fill="#0051ff"/><polygon points="112.13999999999999,0 112.13999999999999,22.43 89.71,22.43" fill="#0051ff"/><rect x="112.14" y="0" width="22.43" height="22.43" fill="#ccdcff"/><polygon points="112.14,0 134.57,22.43 112.14,22.43" fill="#115dff"/><rect x="89.71" y="22.43" width="22.43" height="22.43" fill="#0051ff"/><polygon points="89.71,22.43 112.13999999999999,22.43 112.13999999999999,44.86" fill="#0051ff"/><rect x="112.14" y="22.43" width="22.43" height="22.43" fill="#105cff"/><polygon points="112.14,22.43 134.57,22.43 112.14,44.86" fill="#4680ff"/><rect x="134.57" y="0" width="44.86" height="44.86" fill="#0051ff"/><rect x="134.57" y="0" width="44.86" height="44.86" fill="#4983ff"/><rect x="179.43" y="0" width="44.86" height="44.86" fill="#4781ff"/><path d="M 179.43 0 A 44.86 44.86 0 0 0 224.29000000000002 44.86 L 224.29000000000002 0L179.43 0" fill="#9cbbff"/><rect x="224.28571428571428" y="0" width="44.857142857142854" height="44.857142857142854" fill="#0051FF"/><rect x="224.29" y="0" width="22.43" height="22.43" fill="#155fff"/><path d="M 224.29 22.43 A 22.43 22.43 0 0 0 246.72 0 L 224.29 0L224.29 22.43" fill="#c0d4ff"/><rect x="246.71" y="0" width="22.43" height="22.43" fill="#d3e1ff"/><path d="M 246.71 0 A 22.43 22.43 0 0 0 269.14 22.43 L 269.14 0L246.71 0" fill="#0051ff"/><rect x="224.29" y="22.43" width="22.43" height="22.43" fill="#0051ff"/><path d="M 224.29 22.43 A 22.43 22.43 0 0 1 246.72 44.86 L 224.29 44.86L224.29 22.43" fill="#0051ff"/><rect x="246.71" y="22.43" width="22.43" height="22.43" fill="#acc7ff"/><path d="M 246.71 44.86 A 22.43 22.43 0 0 1  269.14 22.43 L 269.14 44.86L246.71 44.86" fill="#7aa5ff"/><rect x="269.1428571428571" y="0" width="44.857142857142854" height="44.857142857142854" fill="#0051FF"/><rect x="269.14" y="0" width="22.43" height="22.43" fill="#0051ff"/><polygon points="291.57,0 291.57,22.43 269.14,22.43" fill="#0051ff"/><rect x="291.57" y="0" width="22.43" height="22.43" fill="#5b8fff"/><polygon points="291.57,0 314,22.43 291.57,22.43" fill="#155fff"/><rect x="269.14" y="22.43" width="22.43" height="22.43" fill="#0051ff"/><polygon points="269.14,22.43 291.57,22.43 269.14,44.86" fill="#0051ff"/><rect x="291.57" y="22.43" width="22.43" height="22.43" fill="#0051ff"/><polygon points="291.57,22.43 314,22.43 314,44.86" fill="#bbd0ff"/><rect x="314" y="0" width="44.857142857142854" height="44.857142857142854" fill="#0051FF"/><rect x="314" y="0" width="22.43" height="22.43" fill="#0051ff"/><path d="M 314 0 A 22.43 22.43 0 0 1 336.43 22.43 L 314 22.43L314 0" fill="#3776ff"/><rect x="336.43" y="0" width="22.43" height="22.43" fill="#1e65ff"/><path d="M 336.43 22.43 A 22.43 22.43 0 0 1  358.86 0 L 358.86 22.43L336.43 22.43" fill="#0051ff"/><rect x="314" y="22.43" width="22.43" height="22.43" fill="#0051ff"/><path d="M 314 44.86 A 22.43 22.43 0 0 0 336.43 22.43 L 314 22.43L314 44.86" fill="#0051ff"/><rect x="336.43" y="22.43" width="22.43" height="22.43" fill="#7aa4ff"/><path d="M 336.43 22.43 A 22.43 22.43 0 0 0 358.86 44.86 L 358.86 22.43L336.43 22.43" fill="#0051ff"/><rect x="358.85714285714283" y="0" width="44.857142857142854" height="44.857142857142854" fill="#0051FF"/><rect x="358.86" y="0" width="22.43" height="22.43" fill="#0051ff"/><polygon points="381.29,0 381.29,22.43 358.86,22.43" fill="#f9fbff"/><rect x="381.29" y="0" width="22.43" height="22.43" fill="#1861ff"/><polygon points="381.29,0 403.72,0 381.29,22.43" fill="#5289ff"/><rect x="358.86" y="22.43" width="22.43" height="22.43" fill="#c2d5ff"/><polygon points="358.86,22.43 381.29,22.43 381.29,44.86" fill="#0051ff"/><rect x="381.29" y="22.43" width="22.43" height="22.43" fill="#89aeff"/><polygon points="381.29,22.43 403.72,44.86 381.29,44.86" fill="#4882ff"/><rect x="0" y="44.86" width="44.86" height="44.86" fill="#79a4ff"/><rect x="0" y="44.86" width="44.86" height="44.86" fill="#0554ff"/><rect x="44.86" y="44.86" width="44.86" height="44.86" fill="#276bff"/><polygon points="44.86,44.86 89.72,44.86 89.72,89.72" fill="#0051ff"/><rect x="89.71428571428571" y="44.857142857142854" width="44.857142857142854" height="44.857142857142854" fill="#0051FF"/><rect x="89.71" y="44.86" width="22.43" height="22.43" fill="#0051ff"/><path d="M 89.71 44.86 A 22.43 22.43 0 0 0 112.13999999999999 67.28999999999999 L 112.13999999999999 44.86L89.71 44.86" fill="#c3d6ff"/><rect x="112.14" y="44.86" width="22.43" height="22.43" fill="#0051ff"/><path d="M 112.14 67.28999999999999 A 22.43 22.43 0 0 0 134.57 44.86 L 112.14 44.86L112.14 67.28999999999999" fill="#155fff"/><rect x="89.71" y="67.29" width="22.43" height="22.43" fill="#0051ff"/><path d="M 89.71 89.72 A 22.43 22.43 0 0 1  112.13999999999999 67.29 L 112.13999999999999 89.72L89.71 89.72" fill="#6f9dff"/><rect x="112.14" y="67.29" width="22.43" height="22.43" fill="#0051ff"/><path d="M 112.14 67.29 A 22.43 22.43 0 0 1 134.57 89.72 L 112.14 89.72L112.14 67.29" fill="#0051ff"/><rect x="134.57142857142856" y="44.857142857142854" width="44.857142857142854" height="44.857142857142854" fill="#0051FF"/><rect x="134.57" y="44.86" width="22.43" height="22.43" fill="#0051ff"/><path d="M 134.57 67.28999999999999 A 22.43 22.43 0 0 1  157 44.86 L 157 67.28999999999999L134.57 67.28999999999999" fill="#0051ff"/><rect x="157" y="44.86" width="22.43" height="22.43" fill="#0051ff"/><path d="M 157 44.86 A 22.43 22.43 0 0 1 179.43 67.28999999999999 L 157 67.28999999999999L157 44.86" fill="#2369ff"/><rect x="134.57" y="67.29" width="22.43" height="22.43" fill="#0051ff"/><path d="M 134.57 67.29 A 22.43 22.43 0 0 0 157 89.72 L 157 67.29L134.57 67.29" fill="#4781ff"/><rect x="157" y="67.29" width="22.43" height="22.43" fill="#115dff"/><path d="M 157 89.72 A 22.43 22.43 0 0 0 179.43 67.29 L 157 67.29L157 89.72" fill="#1a63ff"/><rect x="179.42857142857142" y="44.857142857142854" width="44.857142857142854" height="44.857142857142854" fill="#0051FF"/><rect x="179.43" y="44.86" width="22.43" height="22.43" fill="#0051ff"/><path d="M 179.43 67.28999999999999 A 22.43 22.43 0 0 1 201.86 44.86 L 201.86 50.4675 A 16.822499999999998 16.822499999999998 0 0 0 185.0375 67.28999999999999" fill="#86acff"/><rect x="201.86" y="44.86" width="22.43" height="22.43" fill="#0f5bff"/><path d="M 201.86 44.86 A 22.43 22.43 0 0 1 224.29000000000002 67.28999999999999 L 218.6825 67.28999999999999 A 16.822499999999998 16.822499999999998 0 0 0 201.86 50.4675" fill="#125dff"/><rect x="179.43" y="67.29" width="22.43" height="22.43" fill="#0051ff"/><path d="M 179.43 67.29 A 22.43 22.43 0 0 0 201.86 89.72 L 201.86 84.11250000000001 A 16.822499999999998 16.822499999999998 0 0 1 185.0375 67.29" fill="#91b4ff"/><rect x="201.86" y="67.29" width="22.43" height="22.43" fill="#92b4ff"/><path d="M 201.86 89.72 A 22.43 22.43 0 0 0 224.29000000000002 67.29 L 218.6825 67.29 A 16.822499999999998 16.822499999999998 0 0 1 201.86 84.11250000000001" fill="#0051ff"/><rect x="224.29" y="44.86" width="44.86" height="44.86" fill="#0a58ff"/><path d="M 224.29 89.72 A 44.86 44.86 0 0 1  269.15 44.86 L 269.15 89.72L224.29 89.72" fill="#0051ff"/><rect x="269.14" y="44.86" width="44.86" height="44.86" fill="#f9fbff"/><rect x="269.14" y="44.86" width="44.86" height="44.86" fill="#e7efff"/><rect x="314" y="44.857142857142854" width="44.857142857142854" height="44.857142857142854" fill="#0051FF"/><rect x="314" y="44.86" width="22.43" height="22.43" fill="#c4d7ff"/><circle cx="325.215" cy="56.075" r="11.215" fill="#7ba5ff"/><rect x="336.43" y="44.86" width="22.43" height="22.43" fill="#0051ff"/><rect x="336.43" y="44.86" width="22.43" height="22.43" fill="#0051ff"/><rect x="314" y="67.29" width="22.43" height="22.43" fill="#4c85ff"/><circle cx="325.215" cy="78.50500000000001" r="11.215" fill="#0051ff"/><rect x="336.43" y="67.29" width="22.43" height="22.43" fill="#0051ff"/><rect x="336.43" y="67.29" width="22.43" height="22.43" fill="#0051ff"/><rect x="358.85714285714283" y="44.857142857142854" width="44.857142857142854" height="44.857142857142854" fill="#0051FF"/><rect x="358.86" y="44.86" width="22.43" height="22.43" fill="#256aff"/><path d="M 358.86 44.86 A 22.43 22.43 0 0 0 381.29 67.28999999999999 L 381.29 44.86L358.86 44.86" fill="#6495ff"/><rect x="381.29" y="44.86" width="22.43" height="22.43" fill="#0051ff"/><path d="M 381.29 67.28999999999999 A 22.43 22.43 0 0 0 403.72 44.86 L 381.29 44.86L381.29 67.28999999999999" fill="#0051ff"/><rect x="358.86" y="67.29" width="22.43" height="22.43" fill="#c5d8ff"/><path d="M 358.86 89.72 A 22.43 22.43 0 0 1  381.29 67.29 L 381.29 89.72L358.86 89.72" fill="#4d85ff"/><rect x="381.29" y="67.29" width="22.43" height="22.43" fill="#427eff"/><path d="M 381.29 67.29 A 22.43 22.43 0 0 1 403.72 89.72 L 381.29 89.72L381.29 67.29" fill="#ecf2ff"/><rect x="0" y="89.71428571428571" width="44.857142857142854" height="44.857142857142854" fill="#0051FF"/><rect x="0" y="89.71" width="22.43" height="22.43" fill="#0051ff"/><polygon points="22.43,89.71 22.43,112.13999999999999 0,112.13999999999999" fill="#0051ff"/><rect x="22.43" y="89.71" width="22.43" height="22.43" fill="#4681ff"/><polygon points="22.43,89.71 44.86,89.71 22.43,112.13999999999999" fill="#b7ceff"/><rect x="0" y="112.14" width="22.43" height="22.43" fill="#2167ff"/><polygon points="0,112.14 22.43,112.14 22.43,134.57" fill="#0051ff"/><rect x="22.43" y="112.14" width="22.43" height="22.43" fill="#0051ff"/><polygon points="22.43,112.14 44.86,134.57 22.43,134.57" fill="#0051ff"/><rect x="44.86" y="89.71" width="44.86" height="44.86" fill="#0051ff"/><polygon points="44.86,89.71 89.72,89.71 44.86,134.57" fill="#4580ff"/><rect x="89.71428571428571" y="89.71428571428571" width="44.857142857142854" height="44.857142857142854" fill="#0051FF"/><rect x="89.71" y="89.71" width="22.43" height="22.43" fill="#0051ff"/><path d="M 89.71 112.13999999999999 A 22.43 22.43 0 0 1  112.13999999999999 89.71 L 112.13999999999999 112.13999999999999L89.71 112.13999999999999" fill="#437fff"/><rect x="112.14" y="89.71" width="22.43" height="22.43" fill="#6193ff"/><path d="M 112.14 89.71 A 22.43 22.43 0 0 1 134.57 112.13999999999999 L 112.14 112.13999999999999L112.14 89.71" fill="#90b3ff"/><rect x="89.71" y="112.14" width="22.43" height="22.43" fill="#89aeff"/><path d="M 89.71 112.14 A 22.43 22.43 0 0 0 112.13999999999999 134.57 L 112.13999999999999 112.14L89.71 112.14" fill="#0051ff"/><rect x="112.14" y="112.14" width="22.43" height="22.43" fill="#0051ff"/><path d="M 112.14 134.57 A 22.43 22.43 0 0 0 134.57 112.14 L 112.14 112.14L112.14 134.57" fill="#0051ff"/><rect x="134.57142857142856" y="89.71428571428571" width="44.857142857142854" height="44.857142857142854" fill="#0051FF"/><rect x="134.57" y="89.71" width="22.43" height="22.43" fill="#0051ff"/><polygon points="157,89.71 157,112.13999999999999 134.57,112.13999999999999" fill="#0051ff"/><rect x="157" y="89.71" width="22.43" height="22.43" fill="#0051ff"/><polygon points="157,89.71 179.43,112.13999999999999 157,112.13999999999999" fill="#0051ff"/><rect x="134.57" y="112.14" width="22.43" height="22.43" fill="#719eff"/><polygon points="134.57,112.14 157,112.14 134.57,134.57" fill="#0051ff"/><rect x="157" y="112.14" width="22.43" height="22.43" fill="#0051ff"/><polygon points="157,112.14 179.43,112.14 179.43,134.57" fill="#0051ff"/><rect x="179.43" y="89.71" width="44.86" height="44.86" fill="#0051ff"/><path d="M 179.43 134.57 A 44.86 44.86 0 0 1  224.29000000000002 89.71 L 224.29000000000002 134.57L179.43 134.57" fill="#0051ff"/><rect x="224.29" y="89.71" width="44.86" height="44.86" fill="#3f7cff"/><rect x="224.29" y="89.71" width="44.86" height="44.86" fill="#0051ff"/><rect x="269.1428571428571" y="89.71428571428571" width="44.857142857142854" height="44.857142857142854" fill="#0051FF"/><rect x="269.14" y="89.71" width="22.43" height="22.43" fill="#3374ff"/><path d="M 269.14 89.71 A 22.43 22.43 0 0 0 291.57 112.13999999999999 L 291.57 89.71L269.14 89.71" fill="#105cff"/><rect x="291.57" y="89.71" width="22.43" height="22.43" fill="#0051ff"/><path d="M 291.57 112.13999999999999 A 22.43 22.43 0 0 0 314 89.71 L 291.57 89.71L291.57 112.13999999999999" fill="#4882ff"/><rect x="269.14" y="112.14" width="22.43" height="22.43" fill="#0051ff"/><path d="M 269.14 134.57 A 22.43 22.43 0 0 1  291.57 112.14 L 291.57 134.57L269.14 134.57" fill="#0051ff"/><rect x="291.57" y="112.14" width="22.43" height="22.43" fill="#b6cdff"/><path d="M 291.57 112.14 A 22.43 22.43 0 0 1 314 134.57 L 291.57 134.57L291.57 112.14" fill="#a1bfff"/><rect x="314" y="89.71428571428571" width="44.857142857142854" height="44.857142857142854" fill="#0051FF"/><rect x="314" y="89.71" width="22.43" height="22.43" fill="#6999ff"/><path d="M 314 89.71 A 22.43 22.43 0 0 1 336.43 112.13999999999999 L 314 112.13999999999999L314 89.71" fill="#145fff"/><rect x="336.43" y="89.71" width="22.43" height="22.43" fill="#0051ff"/><path d="M 336.43 112.13999999999999 A 22.43 22.43 0 0 1  358.86 89.71 L 358.86 112.13999999999999L336.43 112.13999999999999" fill="#d1dfff"/><rect x="314" y="112.14" width="22.43" height="22.43" fill="#0051ff"/><path d="M 314 134.57 A 22.43 22.43 0 0 0 336.43 112.14 L 314 112.14L314 134.57" fill="#105cff"/><rect x="336.43" y="112.14" width="22.43" height="22.43" fill="#0051ff"/><path d="M 336.43 112.14 A 22.43 22.43 0 0 0 358.86 134.57 L 358.86 112.14L336.43 112.14" fill="#0051ff"/><rect x="358.86" y="89.71" width="44.86" height="44.86" fill="#0051ff"/><path d="M 358.86 134.57 A 44.86 44.86 0 0 1  403.72 89.71 L 358.86 134.57 A 44.86 44.86 0 0 0 403.72 89.71" fill="#0051ff"/><rect x="0" y="134.57" width="44.86" height="44.86" fill="#0051ff"/><path d="M 0 179.43 A 44.86 44.86 0 0 1  44.86 134.57 L 0 179.43 A 44.86 44.86 0 0 0 44.86 134.57" fill="#0051ff"/><rect x="44.86" y="134.57" width="44.86" height="44.86" fill="#3f7cff"/><path d="M 44.86 134.57 A 44.86 44.86 0 0 0 89.72 179.43 L 89.72 134.57L44.86 134.57" fill="#7da7ff"/><rect x="89.71" y="134.57" width="44.86" height="44.86" fill="#6d9bff"/><rect x="89.71" y="134.57" width="44.86" height="44.86" fill="#0051ff"/><rect x="134.57142857142856" y="134.57142857142856" width="44.857142857142854" height="44.857142857142854" fill="#0051FF"/><rect x="134.57" y="134.57" width="22.43" height="22.43" fill="#0051ff"/><path d="M 134.57 157 A 22.43 22.43 0 0 0 157 134.57 L 134.57 134.57L134.57 157" fill="#0051ff"/><rect x="157" y="134.57" width="22.43" height="22.43" fill="#0051ff"/><path d="M 157 134.57 A 22.43 22.43 0 0 0 179.43 157 L 179.43 134.57L157 134.57" fill="#0051ff"/><rect x="134.57" y="157" width="22.43" height="22.43" fill="#7aa4ff"/><path d="M 134.57 157 A 22.43 22.43 0 0 1 157 179.43 L 134.57 179.43L134.57 157" fill="#0051ff"/><rect x="157" y="157" width="22.43" height="22.43" fill="#6797ff"/><path d="M 157 179.43 A 22.43 22.43 0 0 1  179.43 157 L 179.43 179.43L157 179.43" fill="#0051ff"/><rect x="179.42857142857142" y="134.57142857142856" width="44.857142857142854" height="44.857142857142854" fill="#0051FF"/><rect x="179.43" y="134.57" width="22.43" height="22.43" fill="#0051ff"/><circle cx="190.645" cy="145.785" r="11.215" fill="#0051ff"/><rect x="201.86" y="134.57" width="22.43" height="22.43" fill="#0051ff"/><rect x="201.86" y="134.57" width="22.43" height="22.43" fill="#c3d6ff"/><rect x="179.43" y="157" width="22.43" height="22.43" fill="#0051ff"/><circle cx="190.645" cy="168.215" r="11.215" fill="#3676ff"/><rect x="201.86" y="157" width="22.43" height="22.43" fill="#0051ff"/><rect x="201.86" y="157" width="22.43" height="22.43" fill="#97b8ff"/><rect x="224.28571428571428" y="134.57142857142856" width="44.857142857142854" height="44.857142857142854" fill="#0051FF"/><rect x="224.29" y="134.57" width="22.43" height="22.43" fill="#fdfeff"/><path d="M 224.29 134.57 A 22.43 22.43 0 0 1 246.72 157 L 224.29 157L224.29 134.57" fill="#0051ff"/><rect x="246.71" y="134.57" width="22.43" height="22.43" fill="#3273ff"/><path d="M 246.71 157 A 22.43 22.43 0 0 1  269.14 134.57 L 269.14 157L246.71 157" fill="#0454ff"/><rect x="224.29" y="157" width="22.43" height="22.43" fill="#6495ff"/><path d="M 224.29 179.43 A 22.43 22.43 0 0 0 246.72 157 L 224.29 157L224.29 179.43" fill="#0051ff"/><rect x="246.71" y="157" width="22.43" height="22.43" fill="#0051ff"/><path d="M 246.71 157 A 22.43 22.43 0 0 0 269.14 179.43 L 269.14 157L246.71 157" fill="#0051ff"/><rect x="269.1428571428571" y="134.57142857142856" width="44.857142857142854" height="44.857142857142854" fill="#0051FF"/><rect x="269.14" y="134.57" width="22.43" height="22.43" fill="#ceddff"/><polygon points="291.57,134.57 291.57,157 269.14,157" fill="#0051ff"/><rect x="291.57" y="134.57" width="22.43" height="22.43" fill="#0152ff"/><polygon points="291.57,134.57 314,157 291.57,157" fill="#0051ff"/><rect x="269.14" y="157" width="22.43" height="22.43" fill="#0051ff"/><polygon points="269.14,157 291.57,157 269.14,179.43" fill="#3072ff"/><rect x="291.57" y="157" width="22.43" height="22.43" fill="#0051ff"/><polygon points="291.57,157 314,157 314,179.43" fill="#92b5ff"/><rect x="314" y="134.57" width="44.86" height="44.86" fill="#3273ff"/><rect x="314" y="134.57" width="44.86" height="44.86" fill="#97b8ff"/><rect x="358.85714285714283" y="134.57142857142856" width="44.857142857142854" height="44.857142857142854" fill="#0051FF"/><rect x="358.86" y="134.57" width="22.43" height="22.43" fill="#0051ff"/><polygon points="381.29,134.57 381.29,157 358.86,157" fill="#3776ff"/><rect x="381.29" y="134.57" width="22.43" height="22.43" fill="#f7f9ff"/><polygon points="381.29,134.57 403.72,134.57 381.29,157" fill="#1761ff"/><rect x="358.86" y="157" width="22.43" height="22.43" fill="#1e65ff"/><polygon points="358.86,157 381.29,157 381.29,179.43" fill="#0051ff"/><rect x="381.29" y="157" width="22.43" height="22.43" fill="#0051ff"/><polygon points="381.29,157 403.72,179.43 381.29,179.43" fill="#3374ff"/><rect x="0" y="179.43" width="44.86" height="44.86" fill="#0051ff"/><rect x="0" y="179.43" width="44.86" height="44.86" fill="#0051ff"/><rect x="44.86" y="179.43" width="44.86" height="44.86" fill="#0051ff"/><rect x="44.86" y="179.43" width="44.86" height="44.86" fill="#5c90ff"/><rect x="89.71428571428571" y="179.42857142857142" width="44.857142857142854" height="44.857142857142854" fill="#0051FF"/><rect x="89.71" y="179.43" width="22.43" height="22.43" fill="#0051ff"/><polygon points="112.13999999999999,179.43 112.13999999999999,201.86 89.71,201.86" fill="#dbe7ff"/><rect x="112.14" y="179.43" width="22.43" height="22.43" fill="#4983ff"/><polygon points="112.14,179.43 134.57,201.86 112.14,201.86" fill="#0051ff"/><rect x="89.71" y="201.86" width="22.43" height="22.43" fill="#0051ff"/><polygon points="89.71,201.86 112.13999999999999,201.86 89.71,224.29000000000002" fill="#0051ff"/><rect x="112.14" y="201.86" width="22.43" height="22.43" fill="#0051ff"/><polygon points="112.14,201.86 134.57,201.86 134.57,224.29000000000002" fill="#c4d7ff"/><rect x="134.57142857142856" y="179.42857142857142" width="44.857142857142854" height="44.857142857142854" fill="#0051FF"/><rect x="134.57" y="179.43" width="22.43" height="22.43" fill="#90b3ff"/><polygon points="157,179.43 157,201.86 134.57,201.86" fill="#0051ff"/><rect x="157" y="179.43" width="22.43" height="22.43" fill="#e0eaff"/><polygon points="157,179.43 179.43,201.86 157,201.86" fill="#0051ff"/><rect x="134.57" y="201.86" width="22.43" height="22.43" fill="#bfd3ff"/><polygon points="134.57,201.86 157,201.86 134.57,224.29000000000002" fill="#dee9ff"/><rect x="157" y="201.86" width="22.43" height="22.43" fill="#0051ff"/><polygon points="157,201.86 179.43,201.86 179.43,224.29000000000002" fill="#5f92ff"/><rect x="179.43" y="179.43" width="44.86" height="44.86" fill="#0051ff"/><path d="M 179.43 179.43 A 44.86 44.86 0 0 0 224.29000000000002 224.29000000000002 L 224.29000000000002 179.43L179.43 179.43" fill="#0051ff"/><rect x="224.29" y="179.43" width="44.86" height="44.86" fill="#0051ff"/><rect x="224.29" y="179.43" width="44.86" height="44.86" fill="#0051ff"/><rect x="269.14" y="179.43" width="44.86" height="44.86" fill="#0051ff"/><rect x="269.14" y="179.43" width="44.86" height="44.86" fill="#d4e2ff"/><rect x="314" y="179.42857142857142" width="44.857142857142854" height="44.857142857142854" fill="#0051FF"/><rect x="314" y="179.43" width="22.43" height="22.43" fill="#4b84ff"/><path d="M 314 179.43 A 22.43 22.43 0 0 1 336.43 201.86 L 314 201.86L314 179.43" fill="#0051ff"/><rect x="336.43" y="179.43" width="22.43" height="22.43" fill="#82aaff"/><path d="M 336.43 201.86 A 22.43 22.43 0 0 1  358.86 179.43 L 358.86 201.86L336.43 201.86" fill="#0051ff"/><rect x="314" y="201.86" width="22.43" height="22.43" fill="#0051ff"/><path d="M 314 224.29000000000002 A 22.43 22.43 0 0 0 336.43 201.86 L 314 201.86L314 224.29000000000002" fill="#0051ff"/><rect x="336.43" y="201.86" width="22.43" height="22.43" fill="#0051ff"/><path d="M 336.43 201.86 A 22.43 22.43 0 0 0 358.86 224.29000000000002 L 358.86 201.86L336.43 201.86" fill="#3e7bff"/><rect x="358.85714285714283" y="179.42857142857142" width="44.857142857142854" height="44.857142857142854" fill="#0051FF"/><rect x="358.86" y="179.43" width="22.43" height="22.43" fill="#eaf1ff"/><path d="M 358.86 201.86 A 22.43 22.43 0 0 1 381.29 179.43 L 381.29 185.0375 A 16.822499999999998 16.822499999999998 0 0 0 364.46750000000003 201.86" fill="#91b4ff"/><rect x="381.29" y="179.43" width="22.43" height="22.43" fill="#417dff"/><path d="M 381.29 179.43 A 22.43 22.43 0 0 1 403.72 201.86 L 398.1125 201.86 A 16.822499999999998 16.822499999999998 0 0 0 381.29 185.0375" fill="#0051ff"/><rect x="358.86" y="201.86" width="22.43" height="22.43" fill="#427eff"/><path d="M 358.86 201.86 A 22.43 22.43 0 0 0 381.29 224.29000000000002 L 381.29 218.6825 A 16.822499999999998 16.822499999999998 0 0 1 364.46750000000003 201.86" fill="#d6e3ff"/><rect x="381.29" y="201.86" width="22.43" height="22.43" fill="#0051ff"/><path d="M 381.29 224.29000000000002 A 22.43 22.43 0 0 0 403.72 201.86 L 398.1125 201.86 A 16.822499999999998 16.822499999999998 0 0 1 381.29 218.6825" fill="#0051ff"/><rect x="0" y="224.28571428571428" width="44.857142857142854" height="44.857142857142854" fill="#0051FF"/><rect x="0" y="224.29" width="22.43" height="22.43" fill="#9abaff"/><path d="M 0 224.29 A 22.43 22.43 0 0 0 22.43 246.72 L 22.43 224.29L0 224.29" fill="#9abaff"/><rect x="22.43" y="224.29" width="22.43" height="22.43" fill="#0051ff"/><path d="M 22.43 246.72 A 22.43 22.43 0 0 0 44.86 224.29 L 22.43 224.29L22.43 246.72" fill="#0051ff"/><rect x="0" y="246.71" width="22.43" height="22.43" fill="#e2ebff"/><path d="M 0 269.14 A 22.43 22.43 0 0 1  22.43 246.71 L 22.43 269.14L0 269.14" fill="#aac5ff"/><rect x="22.43" y="246.71" width="22.43" height="22.43" fill="#0051ff"/><path d="M 22.43 246.71 A 22.43 22.43 0 0 1 44.86 269.14 L 22.43 269.14L22.43 246.71" fill="#90b3ff"/><rect x="44.86" y="224.29" width="44.86" height="44.86" fill="#0051ff"/><path d="M 44.86 224.29 A 44.86 44.86 0 0 1  89.72 269.15 L 44.86 224.29 A 44.86 44.86 0 0 0 89.72 269.15" fill="#e0eaff"/><rect x="89.71428571428571" y="224.28571428571428" width="44.857142857142854" height="44.857142857142854" fill="#0051FF"/><rect x="89.71" y="224.29" width="22.43" height="22.43" fill="#578dff"/><path d="M 89.71 224.29 A 22.43 22.43 0 0 0 112.13999999999999 246.72 L 112.13999999999999 224.29L89.71 224.29" fill="#f1f6ff"/><rect x="112.14" y="224.29" width="22.43" height="22.43" fill="#0051ff"/><path d="M 112.14 246.72 A 22.43 22.43 0 0 0 134.57 224.29 L 112.14 224.29L112.14 246.72" fill="#0051ff"/><rect x="89.71" y="246.71" width="22.43" height="22.43" fill="#0051ff"/><path d="M 89.71 269.14 A 22.43 22.43 0 0 1  112.13999999999999 246.71 L 112.13999999999999 269.14L89.71 269.14" fill="#0051ff"/><rect x="112.14" y="246.71" width="22.43" height="22.43" fill="#0051ff"/><path d="M 112.14 246.71 A 22.43 22.43 0 0 1 134.57 269.14 L 112.14 269.14L112.14 246.71" fill="#2a6eff"/><rect x="134.57" y="224.29" width="44.86" height="44.86" fill="#0051ff"/><rect x="134.57" y="224.29" width="44.86" height="44.86" fill="#0051ff"/><rect x="179.43" y="224.29" width="44.86" height="44.86" fill="#0051ff"/><path d="M 179.43 269.15 A 44.86 44.86 0 0 1  224.29000000000002 224.29 L 179.43 269.15 A 44.86 44.86 0 0 0 224.29000000000002 224.29" fill="#0051ff"/><rect x="224.28571428571428" y="224.28571428571428" width="44.857142857142854" height="44.857142857142854" fill="#0051FF"/><rect x="224.29" y="224.29" width="22.43" height="22.43" fill="#0051ff"/><path d="M 224.29 246.72 A 22.43 22.43 0 0 1 246.72 224.29 L 246.72 229.89749999999998 A 16.822499999999998 16.822499999999998 0 0 0 229.89749999999998 246.72" fill="#0051ff"/><rect x="246.71" y="224.29" width="22.43" height="22.43" fill="#115cff"/><path d="M 246.71 224.29 A 22.43 22.43 0 0 1 269.14 246.72 L 263.5325 246.72 A 16.822499999999998 16.822499999999998 0 0 0 246.71 229.89749999999998" fill="#6696ff"/><rect x="224.29" y="246.71" width="22.43" height="22.43" fill="#0051ff"/><path d="M 224.29 246.71 A 22.43 22.43 0 0 0 246.72 269.14 L 246.72 263.5325 A 16.822499999999998 16.822499999999998 0 0 1 229.89749999999998 246.71" fill="#89aeff"/><rect x="246.71" y="246.71" width="22.43" height="22.43" fill="#6d9cff"/><path d="M 246.71 269.14 A 22.43 22.43 0 0 0 269.14 246.71 L 263.5325 246.71 A 16.822499999999998 16.822499999999998 0 0 1 246.71 263.5325" fill="#598eff"/><rect x="269.1428571428571" y="224.28571428571428" width="44.857142857142854" height="44.857142857142854" fill="#0051FF"/><rect x="269.14" y="224.29" width="22.43" height="22.43" fill="#588dff"/><path d="M 269.14 224.29 A 22.43 22.43 0 0 1 291.57 246.72 L 269.14 246.72L269.14 224.29" fill="#0051ff"/><rect x="291.57" y="224.29" width="22.43" height="22.43" fill="#0051ff"/><path d="M 291.57 246.72 A 22.43 22.43 0 0 1  314 224.29 L 314 246.72L291.57 246.72" fill="#0252ff"/><rect x="269.14" y="246.71" width="22.43" height="22.43" fill="#8aafff"/><path d="M 269.14 269.14 A 22.43 22.43 0 0 0 291.57 246.71 L 269.14 246.71L269.14 269.14" fill="#0051ff"/><rect x="291.57" y="246.71" width="22.43" height="22.43" fill="#0051ff"/><path d="M 291.57 246.71 A 22.43 22.43 0 0 0 314 269.14 L 314 246.71L291.57 246.71" fill="#c9daff"/><rect x="314" y="224.28571428571428" width="44.857142857142854" height="44.857142857142854" fill="#0051FF"/><rect x="314" y="224.29" width="22.43" height="22.43" fill="#0051ff"/><polygon points="336.43,224.29 336.43,246.72 314,246.72" fill="#f8faff"/><rect x="336.43" y="224.29" width="22.43" height="22.43" fill="#a4c1ff"/><polygon points="336.43,224.29 358.86,246.72 336.43,246.72" fill="#3575ff"/><rect x="314" y="246.71" width="22.43" height="22.43" fill="#0051ff"/><polygon points="314,246.71 336.43,246.71 336.43,269.14" fill="#135eff"/><rect x="336.43" y="246.71" width="22.43" height="22.43" fill="#0051ff"/><polygon points="336.43,246.71 358.86,246.71 336.43,269.14" fill="#4a83ff"/><rect x="358.85714285714283" y="224.28571428571428" width="44.857142857142854" height="44.857142857142854" fill="#0051FF"/><rect x="358.86" y="224.29" width="22.43" height="22.43" fill="#8aafff"/><circle cx="370.075" cy="235.505" r="11.215" fill="#0051ff"/><rect x="381.29" y="224.29" width="22.43" height="22.43" fill="#0051ff"/><rect x="381.29" y="224.29" width="22.43" height="22.43" fill="#0051ff"/><rect x="358.86" y="246.71" width="22.43" height="22.43" fill="#f8faff"/><circle cx="370.075" cy="257.925" r="11.215" fill="#0051ff"/><rect x="381.29" y="246.71" width="22.43" height="22.43" fill="#0051ff"/><rect x="381.29" y="246.71" width="22.43" height="22.43" fill="#0051ff"/><rect x="0" y="269.1428571428571" width="44.857142857142854" height="44.857142857142854" fill="#0051FF"/><rect x="0" y="269.14" width="22.43" height="22.43" fill="#0051ff"/><path d="M 0 269.14 A 22.43 22.43 0 0 0 22.43 291.57 L 22.43 269.14L0 269.14" fill="#0051ff"/><rect x="22.43" y="269.14" width="22.43" height="22.43" fill="#c3d6ff"/><path d="M 22.43 291.57 A 22.43 22.43 0 0 0 44.86 269.14 L 22.43 269.14L22.43 291.57" fill="#0051ff"/><rect x="0" y="291.57" width="22.43" height="22.43" fill="#0051ff"/><path d="M 0 314 A 22.43 22.43 0 0 1  22.43 291.57 L 22.43 314L0 314" fill="#0051ff"/><rect x="22.43" y="291.57" width="22.43" height="22.43" fill="#0051ff"/><path d="M 22.43 291.57 A 22.43 22.43 0 0 1 44.86 314 L 22.43 314L22.43 291.57" fill="#80a9ff"/><rect x="44.86" y="269.14" width="44.86" height="44.86" fill="#0051ff"/><path d="M 44.86 269.14 A 44.86 44.86 0 0 0 89.72 314 L 89.72 269.14L44.86 269.14" fill="#0051ff"/><rect x="89.71" y="269.14" width="44.86" height="44.86" fill="#0051ff"/><path d="M 89.71 269.14 A 44.86 44.86 0 0 1 134.57 314 L 89.71 314L89.71 269.14" fill="#0051ff"/><rect x="134.57142857142856" y="269.1428571428571" width="44.857142857142854" height="44.857142857142854" fill="#0051FF"/><rect x="134.57" y="269.14" width="22.43" height="22.43" fill="#adc7ff"/><polygon points="157,269.14 157,291.57 134.57,291.57" fill="#4e86ff"/><rect x="157" y="269.14" width="22.43" height="22.43" fill="#0051ff"/><polygon points="157,269.14 179.43,291.57 157,291.57" fill="#0051ff"/><rect x="134.57" y="291.57" width="22.43" height="22.43" fill="#73a0ff"/><polygon points="134.57,291.57 157,291.57 157,314" fill="#0051ff"/><rect x="157" y="291.57" width="22.43" height="22.43" fill="#80a8ff"/><polygon points="157,291.57 179.43,291.57 157,314" fill="#0454ff"/><rect x="179.43" y="269.14" width="44.86" height="44.86" fill="#0051ff"/><polygon points="224.29000000000002,269.14 224.29000000000002,314 179.43,314" fill="#0051ff"/><rect x="224.28571428571428" y="269.1428571428571" width="44.857142857142854" height="44.857142857142854" fill="#0051FF"/><rect x="224.29" y="269.14" width="22.43" height="22.43" fill="#0051ff"/><path d="M 224.29 291.57 A 22.43 22.43 0 0 1 246.72 269.14 L 246.72 274.7475 A 16.822499999999998 16.822499999999998 0 0 0 229.89749999999998 291.57" fill="#2d70ff"/><rect x="246.71" y="269.14" width="22.43" height="22.43" fill="#0353ff"/><path d="M 246.71 269.14 A 22.43 22.43 0 0 1 269.14 291.57 L 263.5325 291.57 A 16.822499999999998 16.822499999999998 0 0 0 246.71 274.7475" fill="#fcfdff"/><rect x="224.29" y="291.57" width="22.43" height="22.43" fill="#0051ff"/><path d="M 224.29 291.57 A 22.43 22.43 0 0 0 246.72 314 L 246.72 308.3925 A 16.822499999999998 16.822499999999998 0 0 1 229.89749999999998 291.57" fill="#2c6fff"/><rect x="246.71" y="291.57" width="22.43" height="22.43" fill="#0051ff"/><path d="M 246.71 314 A 22.43 22.43 0 0 0 269.14 291.57 L 263.5325 291.57 A 16.822499999999998 16.822499999999998 0 0 1 246.71 308.3925" fill="#77a2ff"/><rect x="269.14" y="269.14" width="44.86" height="44.86" fill="#85acff"/><path d="M 269.14 314 A 44.86 44.86 0 0 1  314 269.14 L 314 314L269.14 314" fill="#0051ff"/><rect x="314" y="269.1428571428571" width="44.857142857142854" height="44.857142857142854" fill="#0051FF"/><rect x="314" y="269.14" width="22.43" height="22.43" fill="#0051ff"/><path d="M 314 291.57 A 22.43 22.43 0 0 1  336.43 269.14 L 336.43 291.57L314 291.57" fill="#bcd2ff"/><rect x="336.43" y="269.14" width="22.43" height="22.43" fill="#0051ff"/><path d="M 336.43 269.14 A 22.43 22.43 0 0 1 358.86 291.57 L 336.43 291.57L336.43 269.14" fill="#0051ff"/><rect x="314" y="291.57" width="22.43" height="22.43" fill="#e7efff"/><path d="M 314 291.57 A 22.43 22.43 0 0 0 336.43 314 L 336.43 291.57L314 291.57" fill="#a9c4ff"/><rect x="336.43" y="291.57" width="22.43" height="22.43" fill="#abc6ff"/><path d="M 336.43 314 A 22.43 22.43 0 0 0 358.86 291.57 L 336.43 291.57L336.43 314" fill="#0051ff"/><rect x="358.85714285714283" y="269.1428571428571" width="44.857142857142854" height="44.857142857142854" fill="#0051FF"/><rect x="358.86" y="269.14" width="22.43" height="22.43" fill="#6294ff"/><path d="M 358.86 269.14 A 22.43 22.43 0 0 1 381.29 291.57 L 358.86 291.57L358.86 269.14" fill="#fefeff"/><rect x="381.29" y="269.14" width="22.43" height="22.43" fill="#abc6ff"/><path d="M 381.29 291.57 A 22.43 22.43 0 0 1  403.72 269.14 L 403.72 291.57L381.29 291.57" fill="#0051ff"/><rect x="358.86" y="291.57" width="22.43" height="22.43" fill="#dfe9ff"/><path d="M 358.86 314 A 22.43 22.43 0 0 0 381.29 291.57 L 358.86 291.57L358.86 314" fill="#0051ff"/><rect x="381.29" y="291.57" width="22.43" height="22.43" fill="#0051ff"/><path d="M 381.29 291.57 A 22.43 22.43 0 0 0 403.72 314 L 403.72 291.57L381.29 291.57" fill="#3273ff"/><rect x="0" y="314" width="44.857142857142854" height="44.857142857142854" fill="#0051FF"/><rect x="0" y="314" width="22.43" height="22.43" fill="#0051ff"/><polygon points="22.43,314 22.43,336.43 0,336.43" fill="#0051ff"/><rect x="22.43" y="314" width="22.43" height="22.43" fill="#0051ff"/><polygon points="22.43,314 44.86,336.43 22.43,336.43" fill="#a9c4ff"/><rect x="0" y="336.43" width="22.43" height="22.43" fill="#d4e2ff"/><polygon points="0,336.43 22.43,336.43 22.43,358.86" fill="#0051ff"/><rect x="22.43" y="336.43" width="22.43" height="22.43" fill="#0051ff"/><polygon points="22.43,336.43 44.86,336.43 22.43,358.86" fill="#2b6eff"/><rect x="44.86" y="314" width="44.86" height="44.86" fill="#5c90ff"/><polygon points="44.86,314 89.72,314 44.86,358.86" fill="#0051ff"/><rect x="89.71428571428571" y="314" width="44.857142857142854" height="44.857142857142854" fill="#0051FF"/><rect x="89.71" y="314" width="22.43" height="22.43" fill="#0051ff"/><circle cx="100.925" cy="325.215" r="11.215" fill="#0051ff"/><rect x="112.14" y="314" width="22.43" height="22.43" fill="#0152ff"/><rect x="112.14" y="314" width="22.43" height="22.43" fill="#2d70ff"/><rect x="89.71" y="336.43" width="22.43" height="22.43" fill="#1e66ff"/><circle cx="100.925" cy="347.645" r="11.215" fill="#99baff"/><rect x="112.14" y="336.43" width="22.43" height="22.43" fill="#0051ff"/><rect x="112.14" y="336.43" width="22.43" height="22.43" fill="#719eff"/><rect x="134.57" y="314" width="44.86" height="44.86" fill="#5d91ff"/><rect x="134.57" y="314" width="44.86" height="44.86" fill="#c4d7ff"/><rect x="179.43" y="314" width="44.86" height="44.86" fill="#0b58ff"/><rect x="179.43" y="314" width="44.86" height="44.86" fill="#0051ff"/><rect x="224.28571428571428" y="314" width="44.857142857142854" height="44.857142857142854" fill="#0051FF"/><rect x="224.29" y="314" width="22.43" height="22.43" fill="#0051ff"/><polygon points="246.72,314 246.72,336.43 224.29,336.43" fill="#0051ff"/><rect x="246.71" y="314" width="22.43" height="22.43" fill="#6b9aff"/><polygon points="246.71,314 269.14,336.43 246.71,336.43" fill="#f4f8ff"/><rect x="224.29" y="336.43" width="22.43" height="22.43" fill="#0051ff"/><polygon points="224.29,336.43 246.72,336.43 224.29,358.86" fill="#e5eeff"/><rect x="246.71" y="336.43" width="22.43" height="22.43" fill="#0a58ff"/><polygon points="246.71,336.43 269.14,336.43 269.14,358.86" fill="#2168ff"/><rect x="269.14" y="314" width="44.86" height="44.86" fill="#0051ff"/><path d="M 269.14 314 A 44.86 44.86 0 0 0 314 358.86 L 314 314L269.14 314" fill="#0051ff"/><rect x="314" y="314" width="44.86" height="44.86" fill="#3374ff"/><polygon points="314,314 358.86,358.86 314,358.86" fill="#0051ff"/><rect x="358.85714285714283" y="314" width="44.857142857142854" height="44.857142857142854" fill="#0051FF"/><rect x="358.86" y="314" width="22.43" height="22.43" fill="#1e65ff"/><path d="M 358.86 336.43 A 22.43 22.43 0 0 1  381.29 314 L 381.29 336.43L358.86 336.43" fill="#76a1ff"/><rect x="381.29" y="314" width="22.43" height="22.43" fill="#0051ff"/><path d="M 381.29 314 A 22.43 22.43 0 0 1 403.72 336.43 L 381.29 336.43L381.29 314" fill="#1f66ff"/><rect x="358.86" y="336.43" width="22.43" height="22.43" fill="#2d70ff"/><path d="M 358.86 336.43 A 22.43 22.43 0 0 0 381.29 358.86 L 381.29 336.43L358.86 336.43" fill="#0051ff"/><rect x="381.29" y="336.43" width="22.43" height="22.43" fill="#e5edff"/><path d="M 381.29 358.86 A 22.43 22.43 0 0 0 403.72 336.43 L 381.29 336.43L381.29 358.86" fill="#115cff"/><rect x="0" y="358.85714285714283" width="44.857142857142854" height="44.857142857142854" fill="#0051FF"/><rect x="0" y="358.86" width="22.43" height="22.43" fill="#0051ff"/><path d="M 0 358.86 A 22.43 22.43 0 0 1 22.43 381.29 L 0 381.29L0 358.86" fill="#276cff"/><rect x="22.43" y="358.86" width="22.43" height="22.43" fill="#4580ff"/><path d="M 22.43 381.29 A 22.43 22.43 0 0 1  44.86 358.86 L 44.86 381.29L22.43 381.29" fill="#0051ff"/><rect x="0" y="381.29" width="22.43" height="22.43" fill="#0051ff"/><path d="M 0 403.72 A 22.43 22.43 0 0 0 22.43 381.29 L 0 381.29L0 403.72" fill="#0856ff"/><rect x="22.43" y="381.29" width="22.43" height="22.43" fill="#427eff"/><path d="M 22.43 381.29 A 22.43 22.43 0 0 0 44.86 403.72 L 44.86 381.29L22.43 381.29" fill="#5d90ff"/><rect x="44.857142857142854" y="358.85714285714283" width="44.857142857142854" height="44.857142857142854" fill="#0051FF"/><rect x="44.86" y="358.86" width="22.43" height="22.43" fill="#7ba5ff"/><polygon points="67.28999999999999,358.86 67.28999999999999,381.29 44.86,381.29" fill="#0051ff"/><rect x="67.29" y="358.86" width="22.43" height="22.43" fill="#0051ff"/><polygon points="67.29,358.86 89.72,358.86 67.29,381.29" fill="#0051ff"/><rect x="44.86" y="381.29" width="22.43" height="22.43" fill="#0051ff"/><polygon points="44.86,381.29 67.28999999999999,381.29 67.28999999999999,403.72" fill="#558bff"/><rect x="67.29" y="381.29" width="22.43" height="22.43" fill="#0051ff"/><polygon points="67.29,381.29 89.72,403.72 67.29,403.72" fill="#0051ff"/><rect x="89.71428571428571" y="358.85714285714283" width="44.857142857142854" height="44.857142857142854" fill="#0051FF"/><rect x="89.71" y="358.86" width="22.43" height="22.43" fill="#eff4ff"/><path d="M 89.71 381.29 A 22.43 22.43 0 0 1  112.13999999999999 358.86 L 112.13999999999999 381.29L89.71 381.29" fill="#4d85ff"/><rect x="112.14" y="358.86" width="22.43" height="22.43" fill="#e9f0ff"/><path d="M 112.14 358.86 A 22.43 22.43 0 0 1 134.57 381.29 L 112.14 381.29L112.14 358.86" fill="#adc7ff"/><rect x="89.71" y="381.29" width="22.43" height="22.43" fill="#0051ff"/><path d="M 89.71 381.29 A 22.43 22.43 0 0 0 112.13999999999999 403.72 L 112.13999999999999 381.29L89.71 381.29" fill="#0051ff"/><rect x="112.14" y="381.29" width="22.43" height="22.43" fill="#ceddff"/><path d="M 112.14 403.72 A 22.43 22.43 0 0 0 134.57 381.29 L 112.14 381.29L112.14 403.72" fill="#eff4ff"/><rect x="134.57142857142856" y="358.85714285714283" width="44.857142857142854" height="44.857142857142854" fill="#0051FF"/><rect x="134.57" y="358.86" width="22.43" height="22.43" fill="#d9e5ff"/><path d="M 134.57 381.29 A 22.43 22.43 0 0 1 157 358.86 L 157 364.46750000000003 A 16.822499999999998 16.822499999999998 0 0 0 140.17749999999998 381.29" fill="#84abff"/><rect x="157" y="358.86" width="22.43" height="22.43" fill="#0051ff"/><path d="M 157 358.86 A 22.43 22.43 0 0 1 179.43 381.29 L 173.8225 381.29 A 16.822499999999998 16.822499999999998 0 0 0 157 364.46750000000003" fill="#0051ff"/><rect x="134.57" y="381.29" width="22.43" height="22.43" fill="#e5edff"/><path d="M 134.57 381.29 A 22.43 22.43 0 0 0 157 403.72 L 157 398.1125 A 16.822499999999998 16.822499999999998 0 0 1 140.17749999999998 381.29" fill="#0051ff"/><rect x="157" y="381.29" width="22.43" height="22.43" fill="#bfd3ff"/><path d="M 157 403.72 A 22.43 22.43 0 0 0 179.43 381.29 L 173.8225 381.29 A 16.822499999999998 16.822499999999998 0 0 1 157 398.1125" fill="#d4e2ff"/><rect x="179.42857142857142" y="358.85714285714283" width="44.857142857142854" height="44.857142857142854" fill="#0051FF"/><rect x="179.43" y="358.86" width="22.43" height="22.43" fill="#0051ff"/><polygon points="201.86,358.86 201.86,381.29 179.43,381.29" fill="#0051ff"/><rect x="201.86" y="358.86" width="22.43" height="22.43" fill="#5188ff"/><polygon points="201.86,358.86 224.29000000000002,381.29 201.86,381.29" fill="#85acff"/><rect x="179.43" y="381.29" width="22.43" height="22.43" fill="#729fff"/><polygon points="179.43,381.29 201.86,381.29 201.86,403.72" fill="#9ebdff"/><rect x="201.86" y="381.29" width="22.43" height="22.43" fill="#0051ff"/><polygon points="201.86,381.29 224.29000000000002,381.29 201.86,403.72" fill="#bcd1ff"/><rect x="224.29" y="358.86" width="44.86" height="44.86" fill="#0051ff"/><path d="M 224.29 403.72 A 44.86 44.86 0 0 0 269.15 358.86 L 224.29 358.86L224.29 403.72" fill="#0051ff"/><rect x="269.14" y="358.86" width="44.86" height="44.86" fill="#80a8ff"/><rect x="269.14" y="358.86" width="44.86" height="44.86" fill="#296dff"/><rect x="314" y="358.86" width="44.86" height="44.86" fill="#0051ff"/><rect x="314" y="358.86" width="44.86" height="44.86" fill="#7fa8ff"/><rect x="358.85714285714283" y="358.85714285714283" width="44.857142857142854" height="44.857142857142854" fill="#0051FF"/><rect x="358.86" y="358.86" width="22.43" height="22.43" fill="#dee9ff"/><path d="M 358.86 381.29 A 22.43 22.43 0 0 0 381.29 358.86 L 358.86 358.86L358.86 381.29" fill="#0051ff"/><rect x="381.29" y="358.86" width="22.43" height="22.43" fill="#0051ff"/><path d="M 381.29 358.86 A 22.43 22.43 0 0 0 403.72 381.29 L 403.72 358.86L381.29 358.86" fill="#0051ff"/><rect x="358.86" y="381.29" width="22.43" height="22.43" fill="#96b7ff"/><path d="M 358.86 381.29 A 22.43 22.43 0 0 1 381.29 403.72 L 358.86 403.72L358.86 381.29" fill="#a5c1ff"/><rect x="381.29" y="381.29" width="22.43" height="22.43" fill="#0051ff"/><path d="M 381.29 403.72 A 22.43 22.43 0 0 1  403.72 381.29 L 403.72 403.72L381.29 403.72" fill="#0051ff"/><rect x="0" y="403.71" width="44.86" height="44.86" fill="#709dff"/><rect x="0" y="403.71" width="44.86" height="44.86" fill="#0a58ff"/><rect x="44.857142857142854" y="403.71428571428567" width="44.857142857142854" height="44.857142857142854" fill="#0051FF"/><rect x="44.86" y="403.71" width="22.43" height="22.43" fill="#0051ff"/><polygon points="67.28999999999999,403.71 67.28999999999999,426.14 44.86,426.14" fill="#0051ff"/><rect x="67.29" y="403.71" width="22.43" height="22.43" fill="#0051ff"/><polygon points="67.29,403.71 89.72,426.14 67.29,426.14" fill="#0051ff"/><rect x="44.86" y="426.14" width="22.43" height="22.43" fill="#0051ff"/><polygon points="44.86,426.14 67.28999999999999,426.14 44.86,448.57" fill="#77a2ff"/><rect x="67.29" y="426.14" width="22.43" height="22.43" fill="#0051ff"/><polygon points="67.29,426.14 89.72,426.14 89.72,448.57" fill="#c9daff"/><rect x="89.71428571428571" y="403.71428571428567" width="44.857142857142854" height="44.857142857142854" fill="#0051FF"/><rect x="89.71" y="403.71" width="22.43" height="22.43" fill="#0454ff"/><path d="M 89.71 426.14 A 22.43 22.43 0 0 0 112.13999999999999 403.71 L 89.71 403.71L89.71 426.14" fill="#eef3ff"/><rect x="112.14" y="403.71" width="22.43" height="22.43" fill="#0051ff"/><path d="M 112.14 403.71 A 22.43 22.43 0 0 0 134.57 426.14 L 134.57 403.71L112.14 403.71" fill="#0051ff"/><rect x="89.71" y="426.14" width="22.43" height="22.43" fill="#0051ff"/><path d="M 89.71 426.14 A 22.43 22.43 0 0 1 112.13999999999999 448.57 L 89.71 448.57L89.71 426.14" fill="#0051ff"/><rect x="112.14" y="426.14" width="22.43" height="22.43" fill="#5289ff"/><path d="M 112.14 448.57 A 22.43 22.43 0 0 1  134.57 426.14 L 134.57 448.57L112.14 448.57" fill="#f9fbff"/><rect x="134.57142857142856" y="403.71428571428567" width="44.857142857142854" height="44.857142857142854" fill="#0051FF"/><rect x="134.57" y="403.71" width="22.43" height="22.43" fill="#3f7cff"/><polygon points="157,403.71 157,426.14 134.57,426.14" fill="#0051ff"/><rect x="157" y="403.71" width="22.43" height="22.43" fill="#3475ff"/><polygon points="157,403.71 179.43,426.14 157,426.14" fill="#fefeff"/><rect x="134.57" y="426.14" width="22.43" height="22.43" fill="#0051ff"/><polygon points="134.57,426.14 157,426.14 134.57,448.57" fill="#92b5ff"/><rect x="157" y="426.14" width="22.43" height="22.43" fill="#115cff"/><polygon points="157,426.14 179.43,426.14 179.43,448.57" fill="#0051ff"/><rect x="179.43" y="403.71" width="44.86" height="44.86" fill="#0051ff"/><polygon points="179.43,403.71 224.29000000000002,403.71 179.43,448.57" fill="#0051ff"/><rect x="224.28571428571428" y="403.71428571428567" width="44.857142857142854" height="44.857142857142854" fill="#0051FF"/><rect x="224.29" y="403.71" width="22.43" height="22.43" fill="#8eb2ff"/><path d="M 224.29 403.71 A 22.43 22.43 0 0 0 246.72 426.14 L 246.72 403.71L224.29 403.71" fill="#0051ff"/><rect x="246.71" y="403.71" width="22.43" height="22.43" fill="#e1eaff"/><path d="M 246.71 426.14 A 22.43 22.43 0 0 0 269.14 403.71 L 246.71 403.71L246.71 426.14" fill="#aec7ff"/><rect x="224.29" y="426.14" width="22.43" height="22.43" fill="#0051ff"/><path d="M 224.29 448.57 A 22.43 22.43 0 0 1  246.72 426.14 L 246.72 448.57L224.29 448.57" fill="#0051ff"/><rect x="246.71" y="426.14" width="22.43" height="22.43" fill="#9abaff"/><path d="M 246.71 426.14 A 22.43 22.43 0 0 1 269.14 448.57 L 246.71 448.57L246.71 426.14" fill="#2a6eff"/><rect x="269.1428571428571" y="403.71428571428567" width="44.857142857142854" height="44.857142857142854" fill="#0051FF"/><rect x="269.14" y="403.71" width="22.43" height="22.43" fill="#0051ff"/><polygon points="291.57,403.71 291.57,426.14 269.14,426.14" fill="#0554ff"/><rect x="291.57" y="403.71" width="22.43" height="22.43" fill="#0051ff"/><polygon points="291.57,403.71 314,426.14 291.57,426.14" fill="#b4ccff"/><rect x="269.14" y="426.14" width="22.43" height="22.43" fill="#78a3ff"/><polygon points="269.14,426.14 291.57,426.14 269.14,448.57" fill="#6395ff"/><rect x="291.57" y="426.14" width="22.43" height="22.43" fill="#bbd1ff"/><polygon points="291.57,426.14 314,426.14 314,448.57" fill="#0051ff"/><rect x="314" y="403.71" width="44.86" height="44.86" fill="#0051ff"/><rect x="314" y="403.71" width="44.86" height="44.86" fill="#0051ff"/><rect x="358.86" y="403.71" width="44.86" height="44.86" fill="#0051ff"/><rect x="358.86" y="403.71" width="44.86" height="44.86" fill="#0051ff"/><rect x="0" y="448.57142857142856" width="44.857142857142854" height="44.857142857142854" fill="#0051FF"/><rect x="0" y="448.57" width="22.43" height="22.43" fill="#b3cbff"/><path d="M 0 448.57 A 22.43 22.43 0 0 0 22.43 471 L 22.43 448.57L0 448.57" fill="#f5f9ff"/><rect x="22.43" y="448.57" width="22.43" height="22.43" fill="#e5edff"/><path d="M 22.43 471 A 22.43 22.43 0 0 0 44.86 448.57 L 22.43 448.57L22.43 471" fill="#3a79ff"/><rect x="0" y="471" width="22.43" height="22.43" fill="#0051ff"/><path d="M 0 493.43 A 22.43 22.43 0 0 1  22.43 471 L 22.43 493.43L0 493.43" fill="#0051ff"/><rect x="22.43" y="471" width="22.43" height="22.43" fill="#eaf1ff"/><path d="M 22.43 471 A 22.43 22.43 0 0 1 44.86 493.43 L 22.43 493.43L22.43 471" fill="#0051ff"/><rect x="44.857142857142854" y="448.57142857142856" width="44.857142857142854" height="44.857142857142854" fill="#0051FF"/><rect x="44.86" y="448.57" width="22.43" height="22.43" fill="#4983ff"/><circle cx="56.075" cy="459.78499999999997" r="11.215" fill="#0353ff"/><rect x="67.29" y="448.57" width="22.43" height="22.43" fill="#0051ff"/><rect x="67.29" y="448.57" width="22.43" height="22.43" fill="#a3c0ff"/><rect x="44.86" y="471" width="22.43" height="22.43" fill="#0051ff"/><circle cx="56.075" cy="482.215" r="11.215" fill="#3b79ff"/><rect x="67.29" y="471" width="22.43" height="22.43" fill="#0051ff"/><rect x="67.29" y="471" width="22.43" height="22.43" fill="#0051ff"/><rect x="89.71428571428571" y="448.57142857142856" width="44.857142857142854" height="44.857142857142854" fill="#0051FF"/><rect x="89.71" y="448.57" width="22.43" height="22.43" fill="#3374ff"/><circle cx="100.925" cy="459.78499999999997" r="11.215" fill="#2d70ff"/><rect x="112.14" y="448.57" width="22.43" height="22.43" fill="#0051ff"/><rect x="112.14" y="448.57" width="22.43" height="22.43" fill="#0051ff"/><rect x="89.71" y="471" width="22.43" height="22.43" fill="#78a3ff"/><circle cx="100.925" cy="482.215" r="11.215" fill="#bed3ff"/><rect x="112.14" y="471" width="22.43" height="22.43" fill="#0051ff"/><rect x="112.14" y="471" width="22.43" height="22.43" fill="#6395ff"/><rect x="134.57142857142856" y="448.57142857142856" width="44.857142857142854" height="44.857142857142854" fill="#0051FF"/><rect x="134.57" y="448.57" width="22.43" height="22.43" fill="#0051ff"/><polygon points="157,448.57 157,471 134.57,471" fill="#a9c4ff"/><rect x="157" y="448.57" width="22.43" height="22.43" fill="#4e86ff"/><polygon points="157,448.57 179.43,471 157,471" fill="#0051ff"/><rect x="134.57" y="471" width="22.43" height="22.43" fill="#548bff"/><polygon points="134.57,471 157,471 134.57,493.43" fill="#a9c4ff"/><rect x="157" y="471" width="22.43" height="22.43" fill="#0051ff"/><polygon points="157,471 179.43,471 179.43,493.43" fill="#c3d6ff"/><rect x="179.43" y="448.57" width="44.86" height="44.86" fill="#bad0ff"/><polygon points="179.43,448.57 224.29000000000002,493.43 179.43,493.43" fill="#4983ff"/><rect x="224.28571428571428" y="448.57142857142856" width="44.857142857142854" height="44.857142857142854" fill="#0051FF"/><rect x="224.29" y="448.57" width="22.43" height="22.43" fill="#0051ff"/><circle cx="235.505" cy="459.78499999999997" r="11.215" fill="#0051ff"/><rect x="246.71" y="448.57" width="22.43" height="22.43" fill="#eaf1ff"/><rect x="246.71" y="448.57" width="22.43" height="22.43" fill="#d4e2ff"/><rect x="224.29" y="471" width="22.43" height="22.43" fill="#0051ff"/><circle cx="235.505" cy="482.215" r="11.215" fill="#0051ff"/><rect x="246.71" y="471" width="22.43" height="22.43" fill="#0051ff"/><rect x="246.71" y="471" width="22.43" height="22.43" fill="#dae6ff"/><rect x="269.14" y="448.57" width="44.86" height="44.86" fill="#0051ff"/><polygon points="269.14,448.57 314,448.57 269.14,493.43" fill="#c7d9ff"/><rect x="314" y="448.57142857142856" width="44.857142857142854" height="44.857142857142854" fill="#0051FF"/><rect x="314" y="448.57" width="22.43" height="22.43" fill="#85acff"/><polygon points="336.43,448.57 336.43,471 314,471" fill="#4681ff"/><rect x="336.43" y="448.57" width="22.43" height="22.43" fill="#6e9cff"/><polygon points="336.43,448.57 358.86,471 336.43,471" fill="#0051ff"/><rect x="314" y="471" width="22.43" height="22.43" fill="#f0f5ff"/><polygon points="314,471 336.43,471 314,493.43" fill="#90b4ff"/><rect x="336.43" y="471" width="22.43" height="22.43" fill="#dbe6ff"/><polygon points="336.43,471 358.86,471 358.86,493.43" fill="#0051ff"/><rect x="358.86" y="448.57" width="44.86" height="44.86" fill="#4d85ff"/><polygon points="358.86,448.57 403.72,448.57 403.72,493.43" fill="#115dff"/><rect x="0" y="493.43" width="44.86" height="44.86" fill="#0051ff"/><rect x="0" y="493.43" width="44.86" height="44.86" fill="#0051ff"/><rect x="44.857142857142854" y="493.4285714285714" width="44.857142857142854" height="44.857142857142854" fill="#0051FF"/><rect x="44.86" y="493.43" width="22.43" height="22.43" fill="#0051ff"/><polygon points="67.28999999999999,493.43 67.28999999999999,515.86 44.86,515.86" fill="#0051ff"/><rect x="67.29" y="493.43" width="22.43" height="22.43" fill="#1962ff"/><polygon points="67.29,493.43 89.72,515.86 67.29,515.86" fill="#0051ff"/><rect x="44.86" y="515.86" width="22.43" height="22.43" fill="#c4d7ff"/><polygon points="44.86,515.86 67.28999999999999,515.86 67.28999999999999,538.29" fill="#0051ff"/><rect x="67.29" y="515.86" width="22.43" height="22.43" fill="#c1d5ff"/><polygon points="67.29,515.86 89.72,515.86 67.29,538.29" fill="#0051ff"/><rect x="89.71428571428571" y="493.4285714285714" width="44.857142857142854" height="44.857142857142854" fill="#0051FF"/><rect x="89.71" y="493.43" width="22.43" height="22.43" fill="#0051ff"/><polygon points="112.13999999999999,493.43 112.13999999999999,515.86 89.71,515.86" fill="#0051ff"/><rect x="112.14" y="493.43" width="22.43" height="22.43" fill="#6999ff"/><polygon points="112.14,493.43 134.57,493.43 112.14,515.86" fill="#f5f8ff"/><rect x="89.71" y="515.86" width="22.43" height="22.43" fill="#0051ff"/><polygon points="89.71,515.86 112.13999999999999,515.86 112.13999999999999,538.29" fill="#0051ff"/><rect x="112.14" y="515.86" width="22.43" height="22.43" fill="#e4edff"/><polygon points="112.14,515.86 134.57,538.29 112.14,538.29" fill="#0051ff"/><rect x="134.57142857142856" y="493.4285714285714" width="44.857142857142854" height="44.857142857142854" fill="#0051FF"/><rect x="134.57" y="493.43" width="22.43" height="22.43" fill="#0051ff"/><path d="M 134.57 515.86 A 22.43 22.43 0 0 1  157 493.43 L 157 515.86L134.57 515.86" fill="#5a8fff"/><rect x="157" y="493.43" width="22.43" height="22.43" fill="#d4e2ff"/><path d="M 157 493.43 A 22.43 22.43 0 0 1 179.43 515.86 L 157 515.86L157 493.43" fill="#0051ff"/><rect x="134.57" y="515.86" width="22.43" height="22.43" fill="#0051ff"/><path d="M 134.57 515.86 A 22.43 22.43 0 0 0 157 538.29 L 157 515.86L134.57 515.86" fill="#3a78ff"/><rect x="157" y="515.86" width="22.43" height="22.43" fill="#0051ff"/><path d="M 157 538.29 A 22.43 22.43 0 0 0 179.43 515.86 L 157 515.86L157 538.29" fill="#eef4ff"/><rect x="179.42857142857142" y="493.4285714285714" width="44.857142857142854" height="44.857142857142854" fill="#0051FF"/><rect x="179.43" y="493.43" width="22.43" height="22.43" fill="#0051ff"/><polygon points="201.86,493.43 201.86,515.86 179.43,515.86" fill="#c7d9ff"/><rect x="201.86" y="493.43" width="22.43" height="22.43" fill="#0051ff"/><polygon points="201.86,493.43 224.29000000000002,515.86 201.86,515.86" fill="#8cb1ff"/><rect x="179.43" y="515.86" width="22.43" height="22.43" fill="#0051ff"/><polygon points="179.43,515.86 201.86,515.86 179.43,538.29" fill="#0051ff"/><rect x="201.86" y="515.86" width="22.43" height="22.43" fill="#0051ff"/><polygon points="201.86,515.86 224.29000000000002,515.86 224.29000000000002,538.29" fill="#0051ff"/><rect x="224.29" y="493.43" width="44.86" height="44.86" fill="#2268ff"/><polygon points="224.29,493.43 269.15,493.43 269.15,538.29" fill="#f3f7ff"/><rect x="269.14" y="493.43" width="44.86" height="44.86" fill="#5088ff"/><polygon points="269.14,493.43 314,493.43 314,538.29" fill="#6a99ff"/><rect x="314" y="493.4285714285714" width="44.857142857142854" height="44.857142857142854" fill="#0051FF"/><rect x="314" y="493.43" width="22.43" height="22.43" fill="#f9fbff"/><path d="M 314 493.43 A 22.43 22.43 0 0 0 336.43 515.86 L 336.43 493.43L314 493.43" fill="#d6e3ff"/><rect x="336.43" y="493.43" width="22.43" height="22.43" fill="#95b7ff"/><path d="M 336.43 515.86 A 22.43 22.43 0 0 0 358.86 493.43 L 336.43 493.43L336.43 515.86" fill="#0051ff"/><rect x="314" y="515.86" width="22.43" height="22.43" fill="#aac5ff"/><path d="M 314 538.29 A 22.43 22.43 0 0 1  336.43 515.86 L 336.43 538.29L314 538.29" fill="#e2ebff"/><rect x="336.43" y="515.86" width="22.43" height="22.43" fill="#0051ff"/><path d="M 336.43 515.86 A 22.43 22.43 0 0 1 358.86 538.29 L 336.43 538.29L336.43 515.86" fill="#0051ff"/><rect x="358.86" y="493.43" width="44.86" height="44.86" fill="#0051ff"/><polygon points="358.86,493.43 403.72,493.43 403.72,538.29" fill="#0051ff"/><rect x="0" y="538.2857142857142" width="44.857142857142854" height="44.857142857142854" fill="#0051FF"/><rect x="0" y="538.29" width="22.43" height="22.43" fill="#d9e5ff"/><polygon points="22.43,538.29 22.43,560.7199999999999 0,560.7199999999999" fill="#7ba5ff"/><rect x="22.43" y="538.29" width="22.43" height="22.43" fill="#0051ff"/><polygon points="22.43,538.29 44.86,560.7199999999999 22.43,560.7199999999999" fill="#276cff"/><rect x="0" y="560.71" width="22.43" height="22.43" fill="#0051ff"/><polygon points="0,560.71 22.43,560.71 0,583.14" fill="#0051ff"/><rect x="22.43" y="560.71" width="22.43" height="22.43" fill="#0051ff"/><polygon points="22.43,560.71 44.86,560.71 44.86,583.14" fill="#0051ff"/><rect x="44.86" y="538.29" width="44.86" height="44.86" fill="#0051ff"/><polygon points="44.86,538.29 89.72,538.29 44.86,583.15" fill="#0051ff"/><rect x="89.71428571428571" y="538.2857142857142" width="44.857142857142854" height="44.857142857142854" fill="#0051FF"/><rect x="89.71" y="538.29" width="22.43" height="22.43" fill="#0051ff"/><path d="M 89.71 560.7199999999999 A 22.43 22.43 0 0 1 112.13999999999999 538.29 L 112.13999999999999 543.8974999999999 A 16.822499999999998 16.822499999999998 0 0 0 95.3175 560.7199999999999" fill="#98b9ff"/><rect x="112.14" y="538.29" width="22.43" height="22.43" fill="#0051ff"/><path d="M 112.14 538.29 A 22.43 22.43 0 0 1 134.57 560.7199999999999 L 128.9625 560.7199999999999 A 16.822499999999998 16.822499999999998 0 0 0 112.14 543.8974999999999" fill="#0051ff"/><rect x="89.71" y="560.71" width="22.43" height="22.43" fill="#dde8ff"/><path d="M 89.71 560.71 A 22.43 22.43 0 0 0 112.13999999999999 583.14 L 112.13999999999999 577.5325 A 16.822499999999998 16.822499999999998 0 0 1 95.3175 560.71" fill="#a9c5ff"/><rect x="112.14" y="560.71" width="22.43" height="22.43" fill="#0051ff"/><path d="M 112.14 583.14 A 22.43 22.43 0 0 0 134.57 560.71 L 128.9625 560.71 A 16.822499999999998 16.822499999999998 0 0 1 112.14 577.5325" fill="#4882ff"/><rect x="134.57" y="538.29" width="44.86" height="44.86" fill="#81a9ff"/><polygon points="134.57,538.29 179.43,538.29 134.57,583.15" fill="#7fa8ff"/><rect x="179.43" y="538.29" width="44.86" height="44.86" fill="#0051ff"/><path d="M 179.43 583.15 A 44.86 44.86 0 0 1  224.29000000000002 538.29 L 179.43 583.15 A 44.86 44.86 0 0 0 224.29000000000002 538.29" fill="#0051ff"/><rect x="224.29" y="538.29" width="44.86" height="44.86" fill="#0051ff"/><rect x="224.29" y="538.29" width="44.86" height="44.86" fill="#0051ff"/><rect x="269.14" y="538.29" width="44.86" height="44.86" fill="#0051ff"/><rect x="269.14" y="538.29" width="44.86" height="44.86" fill="#0051ff"/><rect x="314" y="538.29" width="44.86" height="44.86" fill="#0051ff"/><polygon points="314,538.29 358.86,538.29 358.86,583.15" fill="#4c85ff"/><rect x="358.85714285714283" y="538.2857142857142" width="44.857142857142854" height="44.857142857142854" fill="#0051FF"/><rect x="358.86" y="538.29" width="22.43" height="22.43" fill="#a5c2ff"/><path d="M 358.86 560.7199999999999 A 22.43 22.43 0 0 0 381.29 538.29 L 358.86 538.29L358.86 560.7199999999999" fill="#0051ff"/><rect x="381.29" y="538.29" width="22.43" height="22.43" fill="#0051ff"/><path d="M 381.29 538.29 A 22.43 22.43 0 0 0 403.72 560.7199999999999 L 403.72 538.29L381.29 538.29" fill="#3978ff"/><rect x="358.86" y="560.71" width="22.43" height="22.43" fill="#fbfcff"/><path d="M 358.86 560.71 A 22.43 22.43 0 0 1 381.29 583.14 L 358.86 583.14L358.86 560.71" fill="#0353ff"/><rect x="381.29" y="560.71" width="22.43" height="22.43" fill="#5d91ff"/><path d="M 381.29 583.14 A 22.43 22.43 0 0 1  403.72 560.71 L 403.72 583.14L381.29 583.14" fill="#a2c0ff"/><rect x="0" y="583.14" width="44.86" height="44.86" fill="#0051ff"/><path d="M 0 628 A 44.86 44.86 0 0 1  44.86 583.14 L 0 628 A 44.86 44.86 0 0 0 44.86 583.14" fill="#0051ff"/><rect x="44.857142857142854" y="583.1428571428571" width="44.857142857142854" height="44.857142857142854" fill="#0051FF"/><rect x="44.86" y="583.14" width="22.43" height="22.43" fill="#c2d5ff"/><path d="M 44.86 583.14 A 22.43 22.43 0 0 1 67.28999999999999 605.5699999999999 L 44.86 605.5699999999999L44.86 583.14" fill="#0051ff"/><rect x="67.29" y="583.14" width="22.43" height="22.43" fill="#0051ff"/><path d="M 67.29 605.5699999999999 A 22.43 22.43 0 0 1  89.72 583.14 L 89.72 605.5699999999999L67.29 605.5699999999999" fill="#eaf1ff"/><rect x="44.86" y="605.57" width="22.43" height="22.43" fill="#0051ff"/><path d="M 44.86 628 A 22.43 22.43 0 0 0 67.28999999999999 605.57 L 44.86 605.57L44.86 628" fill="#3474ff"/><rect x="67.29" y="605.57" width="22.43" height="22.43" fill="#0051ff"/><path d="M 67.29 605.57 A 22.43 22.43 0 0 0 89.72 628 L 89.72 605.57L67.29 605.57" fill="#0051ff"/><rect x="89.71" y="583.14" width="44.86" height="44.86" fill="#5d90ff"/><rect x="89.71" y="583.14" width="44.86" height="44.86" fill="#0051ff"/><rect x="134.57142857142856" y="583.1428571428571" width="44.857142857142854" height="44.857142857142854" fill="#0051FF"/><rect x="134.57" y="583.14" width="22.43" height="22.43" fill="#0051ff"/><circle cx="145.785" cy="594.355" r="11.215" fill="#2369ff"/><rect x="157" y="583.14" width="22.43" height="22.43" fill="#0051ff"/><rect x="157" y="583.14" width="22.43" height="22.43" fill="#0051ff"/><rect x="134.57" y="605.57" width="22.43" height="22.43" fill="#0051ff"/><circle cx="145.785" cy="616.7850000000001" r="11.215" fill="#4983ff"/><rect x="157" y="605.57" width="22.43" height="22.43" fill="#0051ff"/><rect x="157" y="605.57" width="22.43" height="22.43" fill="#0051ff"/><rect x="179.42857142857142" y="583.1428571428571" width="44.857142857142854" height="44.857142857142854" fill="#0051FF"/><rect x="179.43" y="583.14" width="22.43" height="22.43" fill="#76a2ff"/><path d="M 179.43 605.5699999999999 A 22.43 22.43 0 0 1  201.86 583.14 L 201.86 605.5699999999999L179.43 605.5699999999999" fill="#0051ff"/><rect x="201.86" y="583.14" width="22.43" height="22.43" fill="#0051ff"/><path d="M 201.86 583.14 A 22.43 22.43 0 0 1 224.29000000000002 605.5699999999999 L 201.86 605.5699999999999L201.86 583.14" fill="#0051ff"/><rect x="179.43" y="605.57" width="22.43" height="22.43" fill="#99b9ff"/><path d="M 179.43 605.57 A 22.43 22.43 0 0 0 201.86 628 L 201.86 605.57L179.43 605.57" fill="#b6cdff"/><rect x="201.86" y="605.57" width="22.43" height="22.43" fill="#0051ff"/><path d="M 201.86 628 A 22.43 22.43 0 0 0 224.29000000000002 605.57 L 201.86 605.57L201.86 628" fill="#dae6ff"/><rect x="224.29" y="583.14" width="44.86" height="44.86" fill="#0051ff"/><polygon points="269.15,583.14 269.15,628 224.29,628" fill="#4882ff"/><rect x="269.1428571428571" y="583.1428571428571" width="44.857142857142854" height="44.857142857142854" fill="#0051FF"/><rect x="269.14" y="583.14" width="22.43" height="22.43" fill="#74a0ff"/><path d="M 269.14 605.5699999999999 A 22.43 22.43 0 0 1  291.57 583.14 L 291.57 605.5699999999999L269.14 605.5699999999999" fill="#93b5ff"/><rect x="291.57" y="583.14" width="22.43" height="22.43" fill="#0051ff"/><path d="M 291.57 583.14 A 22.43 22.43 0 0 1 314 605.5699999999999 L 291.57 605.5699999999999L291.57 583.14" fill="#0051ff"/><rect x="269.14" y="605.57" width="22.43" height="22.43" fill="#0051ff"/><path d="M 269.14 605.57 A 22.43 22.43 0 0 0 291.57 628 L 291.57 605.57L269.14 605.57" fill="#1b63ff"/><rect x="291.57" y="605.57" width="22.43" height="22.43" fill="#0051ff"/><path d="M 291.57 628 A 22.43 22.43 0 0 0 314 605.57 L 291.57 605.57L291.57 628" fill="#0051ff"/><rect x="314" y="583.1428571428571" width="44.857142857142854" height="44.857142857142854" fill="#0051FF"/><rect x="314" y="583.14" width="22.43" height="22.43" fill="#2c6fff"/><circle cx="325.215" cy="594.355" r="11.215" fill="#256aff"/><rect x="336.43" y="583.14" width="22.43" height="22.43" fill="#6193ff"/><rect x="336.43" y="583.14" width="22.43" height="22.43" fill="#6898ff"/><rect x="314" y="605.57" width="22.43" height="22.43" fill="#1760ff"/><circle cx="325.215" cy="616.7850000000001" r="11.215" fill="#d3e1ff"/><rect x="336.43" y="605.57" width="22.43" height="22.43" fill="#7ca5ff"/><rect x="336.43" y="605.57" width="22.43" height="22.43" fill="#b0c9ff"/><rect x="358.86" y="583.14" width="44.86" height="44.86" fill="#a3c0ff"/><path d="M 358.86 583.14 A 44.86 44.86 0 0 1 403.72 628 L 358.86 628L358.86 583.14" fill="#f9fbff"/><rect x="0" y="628" width="44.86" height="44.86" fill="#0051ff"/><path d="M 0 628 A 44.86 44.86 0 0 1 44.86 672.86 L 0 672.86L0 628" fill="#0051ff"/><rect x="44.857142857142854" y="628" width="44.857142857142854" height="44.857142857142854" fill="#0051FF"/><rect x="44.86" y="628" width="22.43" height="22.43" fill="#0051ff"/><path d="M 44.86 650.43 A 22.43 22.43 0 0 1 67.28999999999999 628 L 67.28999999999999 633.6075 A 16.822499999999998 16.822499999999998 0 0 0 50.4675 650.43" fill="#82aaff"/><rect x="67.29" y="628" width="22.43" height="22.43" fill="#acc6ff"/><path d="M 67.29 628 A 22.43 22.43 0 0 1 89.72 650.43 L 84.11250000000001 650.43 A 16.822499999999998 16.822499999999998 0 0 0 67.29 633.6075" fill="#0051ff"/><rect x="44.86" y="650.43" width="22.43" height="22.43" fill="#0051ff"/><path d="M 44.86 650.43 A 22.43 22.43 0 0 0 67.28999999999999 672.8599999999999 L 67.28999999999999 667.2524999999999 A 16.822499999999998 16.822499999999998 0 0 1 50.4675 650.43" fill="#105cff"/><rect x="67.29" y="650.43" width="22.43" height="22.43" fill="#d8e5ff"/><path d="M 67.29 672.8599999999999 A 22.43 22.43 0 0 0 89.72 650.43 L 84.11250000000001 650.43 A 16.822499999999998 16.822499999999998 0 0 1 67.29 667.2524999999999" fill="#6294ff"/><rect x="89.71" y="628" width="44.86" height="44.86" fill="#0051ff"/><rect x="89.71" y="628" width="44.86" height="44.86" fill="#4f87ff"/><rect x="134.57142857142856" y="628" width="44.857142857142854" height="44.857142857142854" fill="#0051FF"/><rect x="134.57" y="628" width="22.43" height="22.43" fill="#0051ff"/><polygon points="157,628 157,650.43 134.57,650.43" fill="#0051ff"/><rect x="157" y="628" width="22.43" height="22.43" fill="#3b79ff"/><polygon points="157,628 179.43,628 157,650.43" fill="#2369ff"/><rect x="134.57" y="650.43" width="22.43" height="22.43" fill="#5088ff"/><polygon points="134.57,650.43 157,650.43 157,672.8599999999999" fill="#0051ff"/><rect x="157" y="650.43" width="22.43" height="22.43" fill="#0051ff"/><polygon points="157,650.43 179.43,672.8599999999999 157,672.8599999999999" fill="#c0d4ff"/><rect x="179.43" y="628" width="44.86" height="44.86" fill="#1761ff"/><path d="M 179.43 628 A 44.86 44.86 0 0 1 224.29000000000002 672.86 L 179.43 672.86L179.43 628" fill="#286cff"/><rect x="224.28571428571428" y="628" width="44.857142857142854" height="44.857142857142854" fill="#0051FF"/><rect x="224.29" y="628" width="22.43" height="22.43" fill="#82aaff"/><path d="M 224.29 650.43 A 22.43 22.43 0 0 0 246.72 628 L 224.29 628L224.29 650.43" fill="#6395ff"/><rect x="246.71" y="628" width="22.43" height="22.43" fill="#0051ff"/><path d="M 246.71 628 A 22.43 22.43 0 0 0 269.14 650.43 L 269.14 628L246.71 628" fill="#dae6ff"/><rect x="224.29" y="650.43" width="22.43" height="22.43" fill="#0051ff"/><path d="M 224.29 650.43 A 22.43 22.43 0 0 1 246.72 672.8599999999999 L 224.29 672.8599999999999L224.29 650.43" fill="#8fb3ff"/><rect x="246.71" y="650.43" width="22.43" height="22.43" fill="#6193ff"/><path d="M 246.71 672.8599999999999 A 22.43 22.43 0 0 1  269.14 650.43 L 269.14 672.8599999999999L246.71 672.8599999999999" fill="#8eb2ff"/><rect x="269.14" y="628" width="44.86" height="44.86" fill="#0051ff"/><path d="M 269.14 672.86 A 44.86 44.86 0 0 1  314 628 L 269.14 672.86 A 44.86 44.86 0 0 0 314 628" fill="#6e9cff"/><rect x="314" y="628" width="44.86" height="44.86" fill="#8db1ff"/><path d="M 314 628 A 44.86 44.86 0 0 1  358.86 672.86 L 314 628 A 44.86 44.86 0 0 0 358.86 672.86" fill="#0051ff"/><rect x="358.85714285714283" y="628" width="44.857142857142854" height="44.857142857142854" fill="#0051FF"/><rect x="358.86" y="628" width="22.43" height="22.43" fill="#cfdeff"/><path d="M 358.86 650.43 A 22.43 22.43 0 0 1 381.29 628 L 381.29 633.6075 A 16.822499999999998 16.822499999999998 0 0 0 364.46750000000003 650.43" fill="#276cff"/><rect x="381.29" y="628" width="22.43" height="22.43" fill="#cadbff"/><path d="M 381.29 628 A 22.43 22.43 0 0 1 403.72 650.43 L 398.1125 650.43 A 16.822499999999998 16.822499999999998 0 0 0 381.29 633.6075" fill="#538aff"/><rect x="358.86" y="650.43" width="22.43" height="22.43" fill="#d5e2ff"/><path d="M 358.86 650.43 A 22.43 22.43 0 0 0 381.29 672.8599999999999 L 381.29 667.2524999999999 A 16.822499999999998 16.822499999999998 0 0 1 364.46750000000003 650.43" fill="#d9e5ff"/><rect x="381.29" y="650.43" width="22.43" height="22.43" fill="#0051ff"/><path d="M 381.29 672.8599999999999 A 22.43 22.43 0 0 0 403.72 650.43 L 398.1125 650.43 A 16.822499999999998 16.822499999999998 0 0 1 381.29 667.2524999999999" fill="#0051ff"/></g></svg>